<svg xmlns="http://www.w3.org/2000/svg" width="24" height="24" viewBox="0 0 24 24"><path d="M14.83 6.302c-.74-.034-.96-.04-2.83-.04s-2.09.007-2.828.04c-1.9.087-2.783.986-2.87 2.87-.033.738-.04.96-.04 2.828s.007 2.09.04 2.83c.087 1.878.967 2.782 2.87 2.87.737.032.96.04 2.828.04 1.87 0 2.09-.007 2.83-.04 1.898-.087 2.78-.99 2.87-2.87.032-.74.04-.96.04-2.83s-.008-2.09-.04-2.828c-.09-1.883-.974-2.783-2.87-2.87zM12 15.595c-1.985 0-3.595-1.61-3.595-3.595S10.015 8.406 12 8.406s3.595 1.61 3.595 3.594c0 1.985-1.61 3.595-3.595 3.595zm3.737-6.49c-.464 0-.84-.377-.84-.84 0-.465.376-.84.84-.84.464 0 .84.375.84.84 0 .462-.376.84-.84.84zM14.333 12c0 1.29-1.045 2.333-2.333 2.333S9.667 13.29 9.667 12c0-1.29 1.045-2.333 2.333-2.333S14.333 10.71 14.333 12zM12 0C5.373 0 0 5.373 0 12s5.373 12 12 12 12-5.373 12-12S18.627 0 12 0zm6.958 14.886c-.115 2.545-1.532 3.955-4.07 4.072C14.14 18.992 13.9 19 12 19s-2.14-.008-2.886-.042c-2.544-.117-3.955-1.53-4.072-4.072C5.008 14.14 5 13.9 5 12c0-1.9.008-2.14.042-2.886.117-2.544 1.53-3.955 4.072-4.07C9.86 5.007 10.1 5 12 5s2.14.008 2.887.043c2.545.117 3.957 1.532 4.07 4.07.035.748.043.986.043 2.887 0 1.9-.008 2.14-.042 2.886z"/></svg>